<?xml version="1.0" standalone="no"?>
<!DOCTYPE svg PUBLIC "-//W3C//DTD SVG 20010904//EN"
 "http://www.w3.org/TR/2001/REC-SVG-20010904/DTD/svg10.dtd">
<svg version="1.0" xmlns="http://www.w3.org/2000/svg"
 width="1398.000000pt" height="610.000000pt" viewBox="0 0 1398.000000 610.000000"
 preserveAspectRatio="xMidYMid meet">

<g transform="translate(0.000000,610.000000) scale(0.100000,-0.100000)"
fill="#000000" stroke="none">
<path d="M1811 4458 c-56 -13 -144 -96 -161 -153 -9 -30 -13 -323 -17 -1122
-3 -595 -3 -1093 1 -1106 10 -40 79 -121 133 -155 l50 -32 1095 0 1095 0 39
28 c47 34 97 90 121 135 16 30 18 104 18 1122 0 1085 0 1090 -21 1135 -30 64
-67 105 -122 132 l-47 23 -1070 2 c-679 1 -1086 -2 -1114 -9z m546 -528 c18
-10 44 -37 58 -58 14 -21 42 -48 63 -59 50 -28 540 -233 557 -233 7 0 35 42
62 93 39 75 53 93 73 95 29 3 88 -30 97 -55 11 -29 -92 -289 -133 -335 -19
-21 11 -32 -426 156 -305 131 -319 136 -386 136 -55 0 -76 5 -103 23 -46 30
-71 82 -63 127 19 109 116 162 201 110z m1250 -15 c34 -23 63 -74 63 -113 0
-46 -35 -110 -74 -133 -37 -22 -41 -29 -153 -294 -99 -234 -133 -321 -133
-338 0 -7 40 -32 90 -54 103 -47 115 -66 83 -130 -13 -28 -25 -39 -45 -41 -28
-3 -169 49 -272 100 -58 29 -58 30 -53 65 4 20 50 142 102 272 167 409 177
438 180 517 3 98 30 141 105 168 24 8 80 -2 107 -19z m-760 -39 c97 -41 243
-114 243 -121 0 -3 -14 -33 -30 -66 -35 -69 -24 -68 -158 -13 -106 44 -218
100 -227 114 -9 15 0 48 25 88 25 41 47 41 147 -2z m-369 -372 c126 -47 210
-92 218 -116 9 -30 1 -52 -121 -345 -141 -337 -155 -381 -155 -487 0 -91 -8
-105 -77 -140 -54 -27 -102 -16 -150 36 -57 61 -53 127 13 198 31 33 61 84 98
166 59 133 196 476 196 491 0 6 -38 27 -85 48 -99 45 -119 62 -109 99 6 25 55
86 68 86 4 0 51 -16 104 -36z m1120 -119 c28 -13 52 -29 52 -34 0 -15 -109
-269 -132 -308 -11 -18 -28 -35 -38 -38 -24 -7 -108 28 -116 49 -5 12 87 240
132 329 18 33 34 34 102 2z m-1223 -60 c29 -14 58 -31 64 -39 16 -19 -125
-356 -149 -356 -5 0 -34 9 -65 21 -46 17 -55 24 -55 45 0 37 131 354 146 354
3 0 29 -11 59 -25z m407 -379 c35 -13 158 -64 273 -114 290 -124 372 -152 450
-152 54 0 68 -4 95 -26 88 -74 82 -187 -13 -233 -24 -12 -54 -21 -66 -21 -40
0 -92 32 -117 71 -29 46 -78 72 -354 189 -271 115 -267 113 -289 91 -10 -10
-36 -51 -57 -91 -20 -40 -43 -74 -51 -77 -21 -8 -60 5 -90 31 l-28 25 28 83
c16 46 46 120 67 166 45 95 50 97 152 58z m119 -270 c46 -19 119 -50 162 -70
87 -39 91 -49 57 -123 -16 -37 -23 -43 -49 -43 -32 0 -307 112 -330 134 -11
12 -11 21 -1 52 18 54 39 84 59 84 10 0 55 -15 102 -34z"/>
<path d="M2240 3860 c-29 -29 -25 -71 8 -103 34 -32 51 -34 86 -6 30 24 35 72
10 107 -20 29 -76 30 -104 2z"/>
<path d="M3486 3849 c-22 -17 -26 -28 -24 -57 6 -68 100 -95 126 -37 18 39 14
72 -10 95 -28 26 -58 25 -92 -1z"/>
<path d="M2242 2597 c-27 -29 -29 -78 -4 -100 25 -23 85 -22 105 1 23 25 22
85 -1 105 -27 24 -74 21 -100 -6z"/>
<path d="M3488 2605 c-70 -38 -22 -159 56 -139 55 13 73 80 35 128 -23 29 -51
32 -91 11z"/>
<path d="M12248 4053 c-30 -3 -38 -9 -42 -31 -3 -15 -7 -143 -8 -284 -3 -266
-5 -279 -42 -239 -9 10 -47 34 -84 52 -189 93 -431 13 -531 -176 -25 -48 -26
-57 -26 -200 l0 -150 34 -63 c80 -146 237 -226 417 -209 66 6 100 20 171 68
48 33 63 36 61 12 -5 -60 21 -76 103 -66 l52 6 -5 626 c-3 344 -9 634 -13 644
-7 17 -13 18 -87 10z m-206 -627 c49 -23 107 -81 125 -125 24 -56 28 -168 10
-232 -18 -62 -75 -126 -136 -155 -57 -27 -159 -30 -212 -7 -104 46 -147 114
-156 243 -6 89 6 142 47 198 53 74 121 104 220 99 36 -2 82 -12 102 -21z"/>
<path d="M7407 3950 c-53 -42 -56 -135 -6 -171 48 -34 90 -35 126 -5 85 72 52
196 -52 196 -27 0 -51 -7 -68 -20z"/>
<path d="M9637 3793 c-4 -3 -7 -52 -7 -109 0 -117 3 -114 -107 -114 l-63 0 0
-65 0 -64 83 -3 82 -3 6 -272 5 -271 30 -48 c38 -62 85 -86 179 -92 139 -9
155 1 168 100 l6 47 -82 -6 c-72 -5 -85 -3 -106 14 -32 26 -40 96 -40 351 l-1
182 105 0 105 0 0 65 0 65 -74 0 c-40 0 -87 3 -104 6 l-30 6 -4 99 c-2 75 -7
102 -18 109 -17 11 -123 13 -133 3z"/>
<path d="M5100 3589 c-64 -12 -97 -27 -162 -71 -32 -21 -60 -38 -63 -38 -3 0
-5 20 -5 45 l0 45 -75 0 -75 0 0 -640 0 -640 75 0 75 0 0 218 c0 119 3 248 7
285 l6 68 26 -25 c14 -14 53 -37 86 -53 54 -25 71 -28 160 -27 80 0 112 5 158
23 81 32 168 114 209 199 32 64 33 71 33 192 0 121 -1 128 -32 191 -53 107
-180 206 -289 224 -76 12 -89 13 -134 4z m115 -150 c54 -14 116 -65 152 -126
20 -34 27 -63 31 -118 6 -90 -14 -155 -64 -214 -118 -137 -345 -114 -426 43
-32 62 -37 193 -9 267 46 122 176 183 316 148z"/>
<path d="M6124 3590 c-51 -10 -130 -49 -173 -85 l-31 -27 0 46 0 46 -80 0 -80
0 2 -402 3 -403 75 0 75 0 5 255 c6 284 9 301 73 357 43 38 91 53 170 53 l57
0 0 79 c0 73 -2 79 -22 85 -13 3 -25 5 -28 5 -3 -1 -24 -5 -46 -9z"/>
<path d="M6681 3589 c-128 -25 -257 -126 -314 -246 -56 -120 -47 -285 24 -394
184 -287 585 -264 754 42 29 52 30 59 30 174 0 113 -2 123 -30 180 -37 74
-124 164 -193 199 -55 28 -160 56 -202 55 -14 -1 -45 -5 -69 -10z m184 -163
c94 -44 141 -116 152 -230 15 -162 -85 -290 -237 -303 -211 -19 -349 199 -256
403 34 75 59 101 121 130 68 32 152 32 220 0z"/>
<path d="M8050 3581 c-113 -37 -214 -124 -262 -226 -29 -64 -30 -67 -26 -198
3 -128 4 -134 37 -195 41 -75 98 -130 183 -174 61 -32 66 -33 188 -33 122 0
127 1 191 33 36 18 87 51 114 73 l47 39 -38 35 c-56 52 -76 54 -125 12 -152
-130 -409 -55 -442 129 l-6 32 325 7 326 7 -7 72 c-19 187 -90 303 -224 364
-46 21 -74 26 -156 28 -55 2 -111 0 -125 -5z m203 -127 c57 -19 112 -78 127
-136 6 -24 13 -51 16 -60 5 -17 -10 -18 -220 -18 -123 0 -231 3 -240 6 -23 9
-20 37 9 94 55 109 183 157 308 114z"/>
<path d="M9010 3581 c-106 -33 -223 -132 -266 -226 -34 -75 -44 -213 -20 -303
29 -116 115 -219 225 -271 49 -23 68 -26 161 -26 126 0 214 26 279 82 l42 36
-47 48 -47 48 -66 -37 c-61 -34 -72 -37 -146 -37 -86 0 -109 9 -168 64 -47 43
-70 98 -75 182 -15 258 186 388 397 255 22 -14 46 -26 53 -26 7 1 33 21 58 45
l44 44 -24 26 c-29 31 -82 60 -159 86 -56 20 -191 25 -241 10z"/>
<path d="M10628 3572 c-16 -2 -28 -7 -28 -12 0 -27 301 -774 320 -793 4 -5 43
-5 87 -2 l79 7 63 162 c85 215 227 586 235 612 6 19 1 22 -44 27 -65 8 -95 -4
-116 -45 -9 -18 -54 -132 -100 -253 -117 -311 -113 -303 -130 -281 -7 10 -52
118 -100 240 -107 274 -130 325 -146 330 -22 7 -92 12 -120 8z"/>
<path d="M7396 3548 c-3 -13 -6 -176 -7 -363 0 -187 -4 -409 -7 -493 -7 -145
-9 -155 -31 -173 -16 -13 -39 -19 -76 -19 -59 0 -65 -7 -65 -86 0 -58 16 -68
93 -61 105 10 172 48 209 120 28 55 36 209 37 715 l1 382 -74 0 c-68 0 -74 -2
-80 -22z"/>
</g>
</svg>
