<?xml version="1.0" encoding="UTF-8"?>
<svg version="1.1" xmlns="http://www.w3.org/2000/svg" width="1398" height="610">
<path d="M0 0 C10.0351147 -0.1053907 20.06962395 -0.12126925 30.10520792 -0.11270666 C34.13738879 -0.11010486 38.16956785 -0.11254208 42.20174885 -0.11409283 C48.97363419 -0.1158945 55.74550851 -0.11356383 62.51739216 -0.10875225 C69.37644892 -0.10393345 76.23548386 -0.10393272 83.0945406 -0.10875225 C103.74328441 -0.12262312 124.39138249 -0.1011674 145.03989887 0.00274372 C148.66020049 0.02018501 152.28049357 0.03322312 155.90081501 0.04566669 C160.65592318 0.06540514 165.40991237 0.11024081 170.1644907 0.18376255 C171.74277699 0.20533994 173.32119464 0.21917026 174.89962101 0.22400761 C184.40558883 0.26203313 192.24621766 1.26002205 199.78231525 7.54264545 C206.30544563 14.28199992 207.40962314 23.42964251 207.36568928 32.4329958 C207.37694263 33.7705503 207.37694263 33.7705503 207.38842332 35.13512611 C207.4095865 38.09349474 207.40964044 41.05146174 207.409482 44.00990009 C207.42010628 46.14291205 207.43193842 48.27591828 207.44488239 50.40891743 C207.47555915 56.18155678 207.48679227 61.95407219 207.49252462 67.72678471 C207.49688754 71.33676519 207.50526862 74.94671385 207.51502323 78.55668354 C207.54872736 91.15992081 207.56590037 103.7630647 207.56866169 116.36634541 C207.5716989 128.10109444 207.61218625 139.83531759 207.66980994 151.56991386 C207.71760478 161.65938063 207.73839377 171.74867375 207.73845232 181.83825302 C207.7389899 187.85813271 207.75053542 193.87749628 207.78962803 199.89725971 C207.82552077 205.55779534 207.82775583 211.21736932 207.80445576 216.87796116 C207.80159901 218.95076235 207.81062355 221.02362051 207.83263493 223.0963068 C208.02091029 242.00248403 208.02091029 242.00248403 201.88060284 249.17525959 C194.76618025 256.00691647 191.3849189 259.16575468 181.31866169 259.19570637 C180.41337632 259.20220532 179.50809095 259.20870427 178.5753727 259.21540016 C175.52317716 259.23587921 172.47099504 259.24903915 169.41875935 259.26209736 C167.23767122 259.27490432 165.056585 259.28803969 162.87550068 259.30148029 C142.94556414 259.41748855 123.01512362 259.47403027 103.0849123 259.5182476 C100.41673483 259.5242663 97.74855752 259.53032225 95.08038044 259.53651142 C94.41722745 259.5380444 93.75407447 259.53957739 93.07082593 259.54115682 C83.00645023 259.5652477 72.94242159 259.61515194 62.878232 259.68006611 C51.18937484 259.75521805 39.50081378 259.8023439 27.81171513 259.81499714 C21.62505061 259.82255734 15.43912845 259.84373718 9.25268269 259.89802456 C3.42808315 259.94853114 -2.39538231 259.96104604 -8.22016621 259.94477367 C-10.35426868 259.94537651 -12.48841902 259.95961156 -14.62232304 259.98872089 C-34.07182971 260.24009384 -34.07182971 260.24009384 -41.02720928 253.52038193 C-41.69214901 252.69579011 -42.35708874 251.87119829 -43.04217815 251.02161884 C-43.55504989 250.44736319 -44.06792163 249.87310755 -44.59633493 249.28145021 C-48.90512076 244.15570411 -49.90745738 240.46743297 -49.77716351 233.85748005 C-49.78370119 232.96819146 -49.79023887 232.07890287 -49.79697466 231.16266614 C-49.81147414 228.19982313 -49.78328744 225.23897797 -49.75506878 222.27625751 C-49.75665148 220.14516584 -49.76084892 218.01407475 -49.76745892 215.88299274 C-49.77771238 210.10577618 -49.7506833 204.32927422 -49.71640491 198.55217242 C-49.68627928 192.49816745 -49.68867957 186.44417073 -49.68707561 180.39010334 C-49.67969391 170.22084622 -49.64978311 160.05185936 -49.60467815 149.88270283 C-49.54698343 136.84895991 -49.52623426 123.81543483 -49.51731396 110.78157806 C-49.50933706 99.55666307 -49.48433304 88.33179498 -49.45662022 77.10691381 C-49.44844361 73.50888981 -49.44258139 69.91086746 -49.43702984 66.31283855 C-49.42719853 60.64681792 -49.40671614 54.98092715 -49.3781538 49.31497097 C-49.36915514 47.24101022 -49.36344175 45.16703207 -49.36133862 43.09305286 C-49.32674526 15.21735483 -49.32674526 15.21735483 -43.41717815 9.08411884 C-42.78553753 8.39447041 -42.1538969 7.70482197 -41.50311565 6.99427509 C-34.0063309 0.98494763 -27.54074823 0.38714696 -18.19793987 0.27991962 C-16.93154108 0.25134436 -15.66514229 0.22276909 -14.36036777 0.1933279 C-9.57389447 0.09055684 -4.78722197 0.05067834 0 0 Z M5.95782185 59.02161884 C3.67370203 62.9669167 3.55572554 66.51814023 3.95782185 71.02161884 C5.77365524 75.13113653 8.12461379 77.68836177 11.95782185 80.02161884 C14.0774703 80.47936394 16.12321777 80.70355279 18.28594685 80.84583759 C19.1676656 80.90384541 20.04938435 80.96185322 20.95782185 81.02161884 C22.26203083 81.09404804 23.56623981 81.16647724 24.90997028 81.24110126 C30.87435462 81.92209815 35.95533816 84.25375018 41.39532185 86.68568134 C42.47426716 87.15597767 43.55321247 87.62627399 44.6648531 88.11082172 C48.10099125 89.61131129 51.52950965 91.1283456 54.95782185 92.64661884 C57.2294461 93.64387777 59.50157762 94.63998204 61.7742281 95.63490009 C62.88403034 96.12093708 63.99383259 96.60697407 65.13726521 97.10773945 C69.43082286 98.98642741 73.72549727 100.86254407 78.02129841 102.73609638 C79.91089431 103.56330516 81.79844565 104.39520851 83.68340778 105.23292255 C86.06066822 106.28863485 88.44519505 107.32555857 90.83282185 108.35755634 C91.51022419 108.66448414 92.18762653 108.97141193 92.88555622 109.28764057 C96.48766279 110.82017448 96.48766279 110.82017448 100.28033161 110.38831806 C103.07607119 108.11054916 104.37975023 104.96582283 105.89532185 101.77161884 C106.23942097 101.0623122 106.58352009 100.35300556 106.93804646 99.62220478 C112.63879819 88.59923203 112.63879819 88.59923203 114.89532185 76.77161884 C113.48211228 74.13362765 111.66282232 73.75250509 108.89532185 72.77161884 C107.97622028 72.43646259 107.05711872 72.10130634 106.1101656 71.75599384 C105.39989216 71.51365009 104.68961872 71.27130634 103.95782185 71.02161884 C99.99100244 77.20519028 96.42261339 83.54448277 92.95782185 90.02161884 C88.3689709 89.31895804 84.24598422 87.66674842 79.97344685 85.92396259 C79.19958637 85.61141026 78.4257259 85.29885792 77.62841511 84.9768343 C75.9868441 84.31238546 74.3461766 83.64570064 72.706357 82.97694111 C70.26030736 81.98049974 67.81053937 80.99369818 65.3601656 80.00794697 C55.85453386 76.16017198 46.53220866 72.03946592 37.29278278 67.59022236 C34.06361653 65.99153642 34.06361653 65.99153642 30.95782185 65.02161884 C30.27162153 63.69823252 29.60995724 62.36211937 28.95782185 61.02161884 C25.98794155 56.93096543 25.98794155 56.93096543 21.95782185 54.02161884 C14.87899174 53.13039923 10.76691646 53.6113874 5.95782185 59.02161884 Z M130.95782185 59.02161884 C128.45157032 63.22032728 127.72191507 66.05368975 127.83282185 70.89661884 C127.16976481 82.31067216 122.2728948 92.56479895 117.95782185 103.02161884 C117.664258 103.7331612 117.37069416 104.44470356 117.06823444 105.17780781 C114.13141372 112.28540593 111.18181166 119.38760713 108.18780231 126.47132587 C105.54193348 132.73549432 102.89746463 139.00255873 100.4461031 145.34583759 C99.96910969 146.57499897 99.96910969 146.57499897 99.48248005 147.82899189 C98.88206745 150.33820805 98.96953501 151.64736673 99.95782185 154.02161884 C106.8285427 158.54699588 114.93222674 161.54967388 122.58282185 164.52161884 C123.59421223 164.92259785 123.59421223 164.92259785 124.62603474 165.33167744 C127.29086926 166.32573239 129.44913292 167.06640375 132.30938435 166.81458759 C135.01702371 165.51209757 135.76116185 163.71410383 136.95782185 161.02161884 C137.7079738 157.97853594 137.7079738 157.97853594 136.95782185 155.02161884 C132.45901244 151.00916721 124.02507853 146.02161884 117.95782185 146.02161884 C122.75620659 132.74879867 128.08369453 119.70226669 133.55746174 106.69617939 C134.32343159 104.8737015 135.08603606 103.04980545 135.8452425 101.2244997 C136.93010622 98.6199992 138.02806218 96.0214064 139.12969685 93.42396259 C139.45557285 92.63617924 139.78144886 91.84839588 140.1171999 91.0367403 C142.38375918 85.7507151 144.76683082 82.5713442 149.52032185 79.20911884 C152.66368091 76.38815558 153.72876327 74.05019973 154.95782185 70.02161884 C155.05926464 64.34082242 153.15905037 61.47324679 149.52813435 57.40443134 C146.46689308 54.70871142 142.9642694 54.67902596 139.02032185 54.74427509 C135.53278111 55.21324364 133.55370694 56.72758085 130.95782185 59.02161884 Z M59.95782185 57.02161884 C59.11963027 58.64411825 58.28741025 60.26970381 57.45782185 61.89661884 C56.99375935 62.80154072 56.52969685 63.70646259 56.05157185 64.63880634 C54.81876596 66.88758744 54.81876596 66.88758744 54.95782185 69.02161884 C63.11254521 73.19657695 71.3045163 77.29186646 79.64532185 81.08411884 C80.30338825 81.39486347 80.96145466 81.7056081 81.63946247 82.02576923 C84.46747083 83.28618834 86.65239686 84.03011467 89.7664156 83.94349384 C92.48899571 82.79816602 93.10207608 81.86260672 94.33282185 79.20911884 C94.67055622 78.52204853 95.0082906 77.83497822 95.35625935 77.12708759 C96.09251768 74.55018341 95.9788128 73.49536457 94.95782185 71.02161884 C92.82394473 69.50018293 92.82394473 69.50018293 90.1101656 68.33021259 C89.11178669 67.86034931 88.11340778 67.39048603 87.08477497 66.90638447 C86.03225544 66.42878681 84.97973591 65.95118916 83.89532185 65.45911884 C82.86987263 64.977654 81.84442341 64.49618916 80.78789997 64.00013447 C70.76455622 58.96825314 70.76455622 58.96825314 59.95782185 57.02161884 Z M21.77032185 97.14661884 C19.83265117 100.22016543 19.29147186 102.43488123 18.95782185 106.02161884 C22.48280921 109.07183853 25.7568685 110.99066369 30.08282185 112.70911884 C31.63356403 113.33366962 31.63356403 113.33366962 33.21563435 113.97083759 C35.11353598 114.69809619 37.02965118 115.37889529 38.95782185 116.02161884 C36.56820818 122.08602097 34.16824736 128.14625942 31.76177692 134.20399189 C30.94798767 136.25582906 30.13638475 138.308535 29.32720661 140.36219501 C25.17073821 150.90687928 20.93596339 161.40184226 16.1726656 171.68958759 C15.82232761 172.46248631 15.47198963 173.23538502 15.11103535 174.0317049 C12.97972783 178.52847174 10.69886102 181.63427791 6.95782185 185.02161884 C3.8688976 189.06917476 3.34722461 191.96238464 3.95782185 197.02161884 C5.34687826 200.65108883 7.23980617 203.40332756 10.20782185 205.95911884 C13.91435899 207.39119001 17.09760908 207.91950716 20.95782185 207.02161884 C24.52607651 205.00290037 28.09168278 202.75389698 29.95782185 199.02161884 C29.95782185 197.11951046 29.95548459 195.21736928 29.94048786 193.31532001 C30.03313478 180.38781337 34.12915476 169.8059935 39.11193562 158.02601337 C40.05880833 155.78232336 40.99684241 153.53505208 41.93389606 151.28724384 C45.79792924 142.02339138 49.68801616 132.77108177 53.63505268 123.54224873 C56.89994271 116.04973577 56.89994271 116.04973577 56.95782185 108.02161884 C51.82241603 103.35714161 44.60025382 101.0781847 38.20782185 98.70911884 C37.27582966 98.35011494 36.34383747 97.99111103 35.3836031 97.62122822 C28.28382435 94.42338134 28.28382435 94.42338134 21.77032185 97.14661884 Z M139.95782185 107.02161884 C135.78286374 115.17634221 131.68757423 123.3683133 127.89532185 131.70911884 C127.58457722 132.36718525 127.27383259 133.02525166 126.95367146 133.70325947 C125.67509357 136.57201077 124.94177436 138.70587372 125.1023531 141.86536884 C125.83743833 144.31909404 125.83743833 144.31909404 128.70782185 145.83411884 C132.79142237 147.49703218 132.79142237 147.49703218 136.95782185 147.02161884 C141.61649935 141.28908682 144.40665095 134.0402847 147.33282185 127.33411884 C147.79559528 126.31511494 148.25836872 125.29611103 148.7351656 124.24622822 C149.16700153 123.26073994 149.59883747 122.27525166 150.04375935 121.25990009 C150.43611774 120.37342793 150.82847614 119.48695576 151.23272419 118.5736208 C152.07587716 115.60611977 151.95642005 113.92663179 150.95782185 111.02161884 C148.43895453 109.54394694 148.43895453 109.54394694 145.39532185 108.70911884 C144.38340778 108.38298603 143.37149372 108.05685322 142.3289156 107.72083759 C141.54645466 107.49009541 140.76399372 107.25935322 139.95782185 107.02161884 Z M18.95782185 114.02161884 C14.81046018 122.52686815 10.79229875 131.03485049 7.45782185 139.89661884 C7.20307087 140.56757587 6.94831989 141.23853291 6.68584919 141.92982197 C5.64006305 144.77623638 4.95782185 146.96284955 4.95782185 150.02161884 C6.18002921 150.70095991 7.41100635 151.36453407 8.64532185 152.02161884 C9.32981403 152.39286884 10.01430622 152.76411884 10.7195406 153.14661884 C13.27313888 154.14488414 15.23961456 154.1739527 17.95782185 154.02161884 C21.75096811 146.82326172 25.16624783 139.48742623 28.39532185 132.02161884 C28.94446247 130.78448139 28.94446247 130.78448139 29.50469685 129.52235126 C29.83856403 128.73835957 30.17243122 127.95436787 30.5164156 127.14661884 C30.81862019 126.44794697 31.12082478 125.74927509 31.43218708 125.02943134 C32.06213145 122.62317843 31.85294614 121.32643356 30.95782185 119.02161884 C28.99770513 117.45338722 28.99770513 117.45338722 26.58282185 116.27161884 C25.79133747 115.84365009 24.9998531 115.41568134 24.18438435 114.97474384 C21.90183068 113.82485386 21.90183068 113.82485386 18.95782185 114.02161884 Z M55.95782185 151.02161884 C51.2137766 155.91339951 48.97593552 163.45139901 46.64532185 169.70911884 C46.10681599 171.09453876 46.10681599 171.09453876 45.55743122 172.50794697 C43.21065059 178.58127892 43.21065059 178.58127892 42.95782185 185.02161884 C46.11794573 188.27203198 48.57409608 189.28485821 52.95782185 190.02161884 C56.97011493 184.18931653 60.62162198 178.26592213 63.95782185 172.02161884 C70.04320164 172.53544774 74.9027805 173.92351242 80.48907185 176.33802509 C81.2832552 176.67277348 82.07743855 177.00752186 82.89568806 177.35241413 C84.57175044 178.06134139 86.24575963 178.77514059 87.91778278 179.49354267 C90.41855815 180.56726082 92.92566982 181.62480821 95.43438435 182.67982197 C103.3544716 186.03171848 111.20922168 189.51010282 118.94219685 193.27552509 C119.59869221 193.58776524 120.25518757 193.90000538 120.93157673 194.22170734 C125.47458112 196.48460821 128.32355461 198.94978027 130.81719685 203.35755634 C132.276067 205.48590801 133.56212763 206.11152272 135.95782185 207.02161884 C142.3774776 207.65306039 145.72544616 206.8176561 150.95782185 203.02161884 C153.40216591 200.10417593 153.91344775 198.37027249 154.39532185 194.58411884 C153.87286962 190.32986503 152.61772453 188.3464972 149.95782185 185.02161884 C149.40094685 184.31779072 148.84407185 183.61396259 148.27032185 182.88880634 C145.078294 180.31145954 142.78295144 180.51390397 138.70782185 180.33411884 C118.50849876 178.59189448 98.96437149 167.57254795 80.59942341 159.51917744 C79.82322651 159.17916706 79.04702961 158.83915668 78.24731159 158.48884296 C76.79478017 157.85163554 75.34308838 157.21250888 73.89245319 156.57099628 C65.23191004 152.51781016 65.23191004 152.51781016 55.95782185 151.02161884 Z M66.95782185 177.02161884 C65.99875935 178.29005634 65.99875935 178.29005634 65.02032185 179.58411884 C64.66067341 180.05978291 64.30102497 180.53544697 63.9304781 181.02552509 C62.51806055 183.92410086 62.31696984 186.84221393 61.95782185 190.02161884 C69.9040373 194.13569097 77.87559885 198.15477816 86.14532185 201.58411884 C87.93002888 202.32855244 87.93002888 202.32855244 89.7507906 203.08802509 C93.10894205 204.0656112 94.7347901 204.35606707 97.95782185 203.02161884 C99.49396452 201.11851195 99.49396452 201.11851195 100.39532185 198.70911884 C100.74465778 197.92923603 101.09399372 197.14935322 101.4539156 196.34583759 C102.1433374 194.06846021 102.1433374 194.06846021 101.37334919 192.06263447 C99.34296194 189.13506679 97.07917299 188.41428668 93.8132906 187.04115009 C93.2064896 186.78282902 92.59968861 186.52450794 91.9744997 186.25835896 C90.69186393 185.71527187 89.40651066 185.17856443 88.11871052 184.64783955 C86.15724611 183.83903578 84.20466205 183.01136331 82.25274372 182.17982197 C74.80188615 178.97943976 74.80188615 178.97943976 66.95782185 177.02161884 Z " fill="#FFFFFF" transform="translate(212.0421781539917,161.9783811569214)"/>
<path d="M0 0 C9.55224536 6.30563629 16.49747432 14.37563927 19.5234375 25.51953125 C21.79438783 37.51427798 21.00526177 49.97138894 14.98828125 60.76171875 C8.43173587 70.14908455 -0.49816155 76.97325856 -11.7265625 79.45703125 C-25.73787481 80.6825351 -37.47661266 79.45699113 -48.7265625 70.45703125 C-48.72076172 71.44566162 -48.71496094 72.43429199 -48.70898438 73.45288086 C-48.66330087 84.98278157 -48.90621859 96.49467537 -49.2265625 108.01953125 C-49.27494692 109.82095798 -49.32312502 111.62239027 -49.37109375 113.42382812 C-49.48684021 117.76831167 -49.6067765 122.11264986 -49.7265625 126.45703125 C-55.0065625 126.45703125 -60.2865625 126.45703125 -65.7265625 126.45703125 C-65.74989401 112.8859233 -65.76758241 99.31482025 -65.77837467 85.74369621 C-65.78355849 79.4398006 -65.79057273 73.13591887 -65.80200195 66.83203125 C-65.81299287 60.73062125 -65.81887308 54.62922447 -65.82143974 48.52780533 C-65.82326517 46.21822019 -65.82682847 43.90863564 -65.83229256 41.59905624 C-65.86573967 26.85394614 -65.5365216 12.18071119 -64.7265625 -2.54296875 C-59.4465625 -2.54296875 -54.1665625 -2.54296875 -48.7265625 -2.54296875 C-48.7265625 0.09703125 -48.7265625 2.73703125 -48.7265625 5.45703125 C-48.13230469 4.998125 -47.53804688 4.53921875 -46.92578125 4.06640625 C-32.22282777 -6.81789523 -16.39555359 -9.27828606 0 0 Z M-42.6640625 18.39453125 C-48.35591642 25.50606237 -49.47538207 33.52879794 -48.7265625 42.45703125 C-47.4527701 50.55835092 -43.86597824 56.0693807 -37.7265625 61.45703125 C-30.67710247 65.55853527 -22.78841431 66.34978312 -14.9296875 64.31640625 C-7.74104187 61.51232462 -2.64089867 56.00209823 0.9609375 49.33203125 C3.89036587 41.92798151 4.38773988 32.85514197 1.2734375 25.45703125 C-2.98843986 18.67527781 -7.98454611 13.04133813 -15.7265625 10.45703125 C-26.52472992 9.33548246 -35.12159837 10.21837649 -42.6640625 18.39453125 Z " fill="#FFFFFF" transform="translate(536.7265625,255.54296875)"/>
<path d="M0 0 C1.09570312 0.00902344 2.19140625 0.01804688 3.3203125 0.02734375 C4.58488281 0.04474609 4.58488281 0.04474609 5.875 0.0625 C6.67371073 3.57503958 6.99887183 6.81003069 6.99525452 10.40925598 C6.99731651 11.99721985 6.99731651 11.99721985 6.99942017 13.61726379 C6.99402725 15.3435627 6.99402725 15.3435627 6.98852539 17.10473633 C6.98867142 18.32466278 6.98881744 19.54458923 6.9889679 20.80148315 C6.98839142 24.13788192 6.98338293 27.47421848 6.97639394 30.81060624 C6.9701343 34.30063076 6.96955453 37.79065615 6.96836853 41.28068542 C6.96526291 47.88560478 6.95705989 54.49050753 6.94701904 61.09541959 C6.93583401 68.61655096 6.93034143 76.13768313 6.92532361 83.65882075 C6.91487664 99.12672343 6.8972921 114.59460958 6.875 130.0625 C4.58390403 130.14325665 2.29200733 130.20157731 0 130.25 C-1.27617188 130.28480469 -2.55234375 130.31960938 -3.8671875 130.35546875 C-4.94226562 130.25878906 -6.01734375 130.16210938 -7.125 130.0625 C-9.0701 127.14485 -9.57776317 125.43712715 -10.125 122.0625 C-10.77726562 122.54460937 -11.42953125 123.02671875 -12.1015625 123.5234375 C-12.97554687 124.15507812 -13.84953125 124.78671875 -14.75 125.4375 C-15.60851563 126.06398438 -16.46703125 126.69046875 -17.3515625 127.3359375 C-26.59337719 133.08929256 -39.41066077 132.31167939 -49.8203125 130.375 C-60.04846814 127.2359241 -68.41483981 120.85109041 -73.5703125 111.41796875 C-79.35852626 99.32887088 -80.35777171 83.9159429 -76.125 71.0625 C-71.77488438 60.56586473 -64.34061527 53.94439087 -54.12890625 49.25390625 C-43.06740849 44.86670623 -31.67188342 45.13944338 -20.63671875 49.63671875 C-16.88006441 51.76918972 -13.53213925 54.4162343 -10.125 57.0625 C-10.08741577 55.37060547 -10.08741577 55.37060547 -10.04907227 53.64453125 C-9.95348555 49.38013112 -9.85366179 45.11583812 -9.75268555 40.8515625 C-9.70989863 39.02085917 -9.66819629 37.19013011 -9.62768555 35.359375 C-9.42372723 26.17369674 -9.1928859 16.98860759 -8.71484375 7.8125 C-8.65031006 6.52859375 -8.58577637 5.2446875 -8.51928711 3.921875 C-8.32411499 2.50648438 -8.32411499 2.50648438 -8.125 1.0625 C-5.36047967 -0.31976016 -3.0788637 -0.03275387 0 0 Z M-54.4375 69.4375 C-59.40774867 75.44737089 -60.65806985 80.77421071 -60.5625 88.375 C-60.55347656 89.22223633 -60.54445313 90.06947266 -60.53515625 90.94238281 C-60.29810101 99.4730791 -58.64746198 104.91346503 -52.4375 110.9375 C-46.55624645 115.60343916 -41.06559038 117.404172 -33.5625 117 C-28.44055469 116.34095249 -24.46692561 114.81470456 -20.125 112.0625 C-19.238125 111.52625 -18.35125 110.99 -17.4375 110.4375 C-11.31821519 104.15282911 -9.60327498 97.64050188 -9.5 89.0625 C-9.60834301 81.8882768 -10.43450857 75.79031165 -15.125 70.0625 C-21.88763342 63.57255341 -28.1316175 61.64594409 -37.45483398 61.69897461 C-44.98068692 61.90585511 -49.41777842 63.9426106 -54.4375 69.4375 Z " fill="#FFFFFF" transform="translate(1228.125,203.9375)"/>
<path d="M0 0 C8.52143193 7.86334115 11.78468288 16.81264857 14 28 C14 32.29 14 36.58 14 41 C-7.12 41 -28.24 41 -50 41 C-46.48991693 52.84572803 -46.48991693 52.84572803 -37.375 59.8125 C-30.59254662 62.92658335 -23.70593594 64.04744674 -16.4375 62 C-12.75973895 60.60930541 -9.93779527 58.55246225 -6.8125 56.1875 C-2.41626361 52.96858388 -2.41626361 52.96858388 1.3125 53.25 C4.37889987 55.24672549 6.6929306 57.15009074 9 60 C9 64 9 64 6.375 66.8125 C4.9451509 67.91303346 3.48203058 68.9708121 2 70 C1.10796875 70.64066406 0.2159375 71.28132813 -0.703125 71.94140625 C-8.59380735 76.75161286 -15.53949949 77.65100939 -24.75 77.6875 C-25.80300293 77.69442871 -26.85600586 77.70135742 -27.94091797 77.70849609 C-39.70332844 77.4366718 -48.46114475 73.20455794 -56.91015625 65.1875 C-66.26598118 55.3350814 -67.29521929 43.81670988 -67.140625 30.71484375 C-66.70250664 19.1412172 -62.85308266 10.282332 -54.3125 2.1875 C-38.619928 -10.53206519 -16.62547305 -12.13125254 0 0 Z M-45 14 C-47.01392807 17.20035105 -48.81112243 20.40240695 -50 24 C-49.67 24.99 -49.34 25.98 -49 27 C-44.18601219 28.24551699 -39.47653113 28.12689044 -34.54296875 28.09765625 C-33.64000565 28.0962413 -32.73704254 28.09482635 -31.80671692 28.09336853 C-28.93361037 28.08778823 -26.06058284 28.07523934 -23.1875 28.0625 C-21.23502717 28.05748245 -19.28255311 28.05291999 -17.33007812 28.04882812 C-12.55335515 28.03782525 -7.77669096 28.02057418 -3 28 C-3.14405273 26.72930664 -3.28810547 25.45861328 -3.43652344 24.14941406 C-3.5175531 23.43464905 -3.59858276 22.71988403 -3.68206787 21.98345947 C-4.47654459 17.02701678 -7.84331792 13.18881214 -11.25 9.6875 C-22.57537396 2.73783871 -36.14320728 3.43323245 -45 14 Z " fill="#FFFFFF" transform="translate(842,258)"/>
<path d="M0 0 C9.18668981 7.0312367 17.02407709 16.95653459 18.625 28.75 C19.4590448 42.92876162 17.10382558 53.47478985 8.03125 64.7265625 C0.01896023 73.30575956 -10.18758001 78.08390481 -21.83203125 79.03125 C-35.54527979 79.38782418 -46.44449966 75.43454499 -56.625 66.125 C-64.93045035 57.28154477 -68.30317776 46.39944967 -68.40234375 34.45703125 C-67.84701871 22.31107595 -63.84589948 13.4775934 -55.375 4.75 C-39.71275731 -9.39968966 -17.85423989 -11.80378643 0 0 Z M-44.375 16.75 C-49.59494902 25.31017547 -51.26938874 32.74796257 -50.375 42.75 C-48.51159691 49.67121146 -44.46196051 56.25536177 -38.26953125 60.03515625 C-30.19513035 63.91253637 -22.90131563 64.67149362 -14.375 61.75 C-6.78696675 57.73280593 -2.25510719 51.73461992 0.625 43.75 C1.77313969 34.36395807 1.52474666 25.51131721 -4.375 17.75 C-10.09034763 11.21462424 -16.31640506 8.29199232 -24.875 7.375 C-32.66613472 8.20976443 -39.25017148 10.61805344 -44.375 16.75 Z " fill="#FFFFFF" transform="translate(700.375,257.25)"/>
<path d="M0 0 C2.83112535 2.25615067 3.45105661 3.46461323 5.1875 6.9375 C1.8875 9.9075 -1.4125 12.8775 -4.8125 15.9375 C-8.35123167 14.52200733 -11.65563923 13.04356485 -15.0625 11.375 C-21.72025983 8.36740608 -27.26034689 7.02009388 -34.4375 8.875 C-40.79541799 11.30923783 -44.91630565 16.53636627 -47.6875 22.625 C-50.8108762 31.82160769 -50.90179382 40.98137058 -46.8125 49.9375 C-43.2999218 55.17088671 -39.70611927 58.54433339 -33.8125 60.9375 C-24.25348473 62.21203537 -16.92445665 61.03644418 -8.8125 55.9375 C-7.4925 55.2775 -6.1725 54.6175 -4.8125 53.9375 C-1.5125 57.2375 1.7875 60.5375 5.1875 63.9375 C-0.46472343 71.94481652 -7.21532916 74.75380828 -16.69140625 76.7578125 C-29.90996519 78.95316614 -41.63815286 77.759543 -52.8125 69.9375 C-60.46125053 63.98847181 -64.77464678 56.05105967 -67.8125 46.9375 C-68.0981634 43.0883334 -68.09027974 39.23357835 -68.125 35.375 C-68.15400391 34.32763672 -68.18300781 33.28027344 -68.21289062 32.20117188 C-68.30775007 20.46049144 -64.31228121 11.69280087 -56.22265625 3.28515625 C-40.76571369 -11.00796946 -17.12471903 -12.1920554 0 0 Z " fill="#FFFFFF" transform="translate(938.8125,258.0625)"/>
<path d="M0 0 C2.08326131 -0.02709444 4.16662441 -0.04643873 6.25 -0.0625 C7.41015625 -0.07410156 8.5703125 -0.08570313 9.765625 -0.09765625 C14.70137436 0.05137 14.70137436 0.05137 17 1 C18.2734375 3.1159668 18.2734375 3.1159668 19.375 5.94921875 C19.79740967 7.01164795 20.21981934 8.07407715 20.6550293 9.16870117 C21.09886963 10.32990479 21.54270996 11.4911084 22 12.6875 C22.71614946 14.50408927 23.43231729 16.32067146 24.14933777 18.13691711 C24.91019993 20.07108087 25.66393131 22.00790966 26.41650391 23.9453125 C28.04586577 28.13084789 29.71251217 32.30098238 31.38671875 36.46875 C31.66379669 37.15862503 31.94087463 37.84850006 32.22634888 38.5592804 C32.7762403 39.92818808 33.3261967 41.29706966 33.8762207 42.66592407 C35.92608067 47.77384139 37.96192648 52.88737153 40 58 C43.14663741 51.98867723 45.64283596 45.91975886 47.96875 39.55078125 C48.71196822 37.54872736 49.4554661 35.54677728 50.19921875 33.54492188 C51.35476882 30.41922539 52.50733571 27.29249817 53.65478516 24.16381836 C54.77207929 21.12303598 55.90089634 18.08672876 57.03125 15.05078125 C57.36991089 14.11736404 57.70857178 13.18394684 58.05749512 12.22224426 C59.79655277 7.57220303 61.36876577 3.53505462 65 0 C68.234375 -0.48828125 68.234375 -0.48828125 71.75 -0.3125 C72.92046875 -0.26738281 74.0909375 -0.22226563 75.296875 -0.17578125 C76.63492187 -0.08876953 76.63492187 -0.08876953 78 0 C79.24929829 4.3047278 78.69298174 6.75784416 77.10546875 10.90625 C76.65268555 12.10443359 76.19990234 13.30261719 75.73339844 14.53710938 C75.21855523 15.85825081 74.70324129 17.17920889 74.1875 18.5 C73.6597614 19.87797954 73.13276272 21.25624264 72.60644531 22.63476562 C64.97751592 42.51566025 56.96790703 62.25321639 49 82 C43.06 82 37.12 82 31 82 C24.570214 67.65663122 18.58274999 53.1565378 12.75 38.5625 C12.4106543 37.71486084 12.07130859 36.86722168 11.72167969 35.99389648 C9.76995989 31.11412556 7.83320412 26.2288061 5.91625977 21.33526611 C5.30189391 19.7694353 4.68450737 18.20478654 4.06420898 16.64129639 C3.18436217 14.41938476 2.31705336 12.19298469 1.453125 9.96484375 C1.05598297 8.97080284 1.05598297 8.97080284 0.65081787 7.9566803 C-1.11443232 3.34329695 -1.11443232 3.34329695 0 0 Z " fill="#FFFFFF" transform="translate(1060,252)"/>
<path d="M0 0 C5.28 0 10.56 0 16 0 C16.33 7.26 16.66 14.52 17 22 C22.08550416 21.96060236 22.08550416 21.96060236 27.17089844 21.90991211 C30.62893138 21.89641097 33.678497 22.06623116 37 23 C37.980503 27.90251498 38 31.80942241 38 37 C30.74 37 23.48 37 16 37 C16.495 40.96 16.495 40.96 17 45 C17.08776711 46.43753223 17.1522555 47.87708761 17.17358398 49.31713867 C17.18707382 50.06118454 17.20056366 50.80523041 17.21446228 51.57182312 C17.22490067 52.34605118 17.23533905 53.12027924 17.24609375 53.91796875 C17.27899834 55.60091732 17.3122105 57.2838599 17.34570312 58.96679688 C17.39323201 61.58679561 17.43778689 64.20676437 17.47680664 66.8269043 C17.51656467 69.37832238 17.56805271 71.92929701 17.62109375 74.48046875 C17.6295079 75.2607695 17.63792206 76.04107025 17.64659119 76.84501648 C17.74006559 80.97104148 18.06262633 84.32034913 20 88 C23.44246014 90.73757545 27.55879276 90.22799753 31.75 90.125 C32.44738281 90.11597656 33.14476562 90.10695313 33.86328125 90.09765625 C35.57566958 90.07419888 37.28788004 90.03833104 39 90 C39.31924927 96.06573618 38.54150194 99.49674778 36 105 C32.50028801 105.1173794 29.00109045 105.18763961 25.5 105.25 C24.51773438 105.28351563 23.53546875 105.31703125 22.5234375 105.3515625 C16.13694656 105.43671571 11.26305794 104.80885679 6 101 C4.16015625 99 4.16015625 99 3.0625 97 C2.68222656 96.34 2.30195312 95.68 1.91015625 95 C0.23359639 91.31588562 -0.15306772 87.85873212 -0.31640625 83.8359375 C-0.35838135 82.80774902 -0.40035645 81.77956055 -0.44360352 80.72021484 C-0.48283936 79.61629395 -0.5220752 78.51237305 -0.5625 77.375 C-0.6049585 76.23885254 -0.64741699 75.10270508 -0.69116211 73.93212891 C-1.11109678 61.62136813 -1.09070732 49.31603869 -1 37 C-6.61 36.67 -12.22 36.34 -18 36 C-18 31.71 -18 27.42 -18 23 C-14.16432171 22.04108043 -11.17718859 21.89822811 -7.25 21.9375 C-5.49429688 21.95103516 -5.49429688 21.95103516 -3.703125 21.96484375 C-2.81109375 21.97644531 -1.9190625 21.98804688 -1 22 C-1.01160156 20.74703125 -1.02320313 19.4940625 -1.03515625 18.203125 C-1.04453716 16.55208483 -1.05363704 14.90104304 -1.0625 13.25 C-1.07087891 12.425 -1.07925781 11.6 -1.08789062 10.75 C-1.09272461 9.55117187 -1.09272461 9.55117187 -1.09765625 8.328125 C-1.10551147 7.22839355 -1.10551147 7.22839355 -1.11352539 6.10644531 C-1 4 -1 4 0 0 Z " fill="#FFFFFF" transform="translate(963,230)"/>
<path d="M0 0 C0.96808594 -0.00257813 1.93617188 -0.00515625 2.93359375 -0.0078125 C5.5625 0.125 5.5625 0.125 8.5625 1.125 C8.60893414 13.86027414 8.64442544 26.59552798 8.66612434 39.33086967 C8.67654111 45.24502437 8.6906618 51.15912094 8.71337891 57.07324219 C8.73518243 62.7855702 8.74708446 68.49784246 8.75225449 74.21020889 C8.75593678 76.38458254 8.76312725 78.55895329 8.77396011 80.73330307 C8.78857482 83.78955318 8.79047378 86.84557579 8.78955078 89.90185547 C8.79674133 90.79162582 8.80393188 91.68139618 8.81134033 92.59812927 C8.78340863 101.20063389 8.1787134 109.57108944 2.43359375 116.36328125 C-4.62552165 123.00975525 -12.01088854 123.65549637 -21.3125 123.49609375 C-24.4375 123.125 -24.4375 123.125 -26.4375 121.125 C-26.4140625 118.0859375 -26.4140625 118.0859375 -26.0625 114.5 C-25.89621094 112.71722656 -25.89621094 112.71722656 -25.7265625 110.8984375 C-25.63117187 109.98320312 -25.53578125 109.06796875 -25.4375 108.125 C-24.19033203 107.96064453 -24.19033203 107.96064453 -22.91796875 107.79296875 C-21.83128906 107.63441406 -20.74460937 107.47585938 -19.625 107.3125 C-18.54605469 107.16167969 -17.46710937 107.01085937 -16.35546875 106.85546875 C-13.27291661 106.08379907 -12.15746691 105.75923504 -10.4375 103.125 C-9.54951545 98.86543405 -9.29529625 94.77464403 -9.24804688 90.43066406 C-9.23132935 89.11358459 -9.21461182 87.79650513 -9.1973877 86.43951416 C-9.19070572 85.7406031 -9.18402374 85.04169205 -9.17713928 84.32160187 C-9.15582244 82.09598475 -9.12880743 79.87049658 -9.10046387 77.6449585 C-9.04098606 72.88835896 -8.98906403 68.13169078 -8.9375 63.375 C-8.86914492 57.17181648 -8.79703203 50.96869155 -8.71875 44.765625 C-8.70936401 44.01181046 -8.69997803 43.25799591 -8.69030762 42.4813385 C-8.512937 28.68492887 -8.07561103 14.90847691 -7.4375 1.125 C-4.84233479 -0.17258261 -2.89566973 -0.00769102 0 0 Z " fill="#FFFFFF" transform="translate(746.4375,251.875)"/>
<path d="M0 0 C1.18681726 3.56045177 1.09689832 6.43808337 1.0625 10.1875 C1.05347656 11.45980469 1.04445313 12.73210937 1.03515625 14.04296875 C1.02355469 15.01878906 1.01195312 15.99460937 1 17 C-0.62808594 17.16435547 -0.62808594 17.16435547 -2.2890625 17.33203125 C-3.73444152 17.49158608 -5.17975051 17.65177611 -6.625 17.8125 C-7.69427734 17.91788086 -7.69427734 17.91788086 -8.78515625 18.02539062 C-14.95957749 18.73346645 -19.34333065 20.26802749 -23.75 24.875 C-29.57734861 32.96853974 -29.13147756 42.41473346 -29.31640625 52.06640625 C-29.33718735 52.98590561 -29.35796844 53.90540497 -29.37937927 54.85276794 C-29.44414557 57.75594469 -29.50341637 60.65920262 -29.5625 63.5625 C-29.60575478 65.54492987 -29.64937115 67.52735189 -29.69335938 69.50976562 C-29.79975085 74.33976307 -29.9012179 79.16984119 -30 84 C-35.28 84 -40.56 84 -46 84 C-46 56.94 -46 29.88 -46 2 C-40.72 2 -35.44 2 -30 2 C-29.67 4.64 -29.34 7.28 -29 10 C-28.38253906 9.52949219 -27.76507812 9.05898438 -27.12890625 8.57421875 C-18.12668842 1.95614994 -11.18854804 -0.63066972 0 0 Z " fill="#FFFFFF" transform="translate(622,250)"/>
<path d="M0 0 C2.4149606 1.93196848 3.30980435 2.79775098 4.1875 5.75 C4.65985231 10.63097387 4.71019768 12.77670088 2.375 17.125 C-0.56372257 20.65146709 -2.01080714 21.67114496 -6.625 22.125 C-10.94586588 22.02933507 -13.47331493 20.5190803 -16.8125 17.75 C-18.54841152 14.27817697 -18.27821673 10.54591036 -17.8125 6.75 C-16.19104397 3.56499709 -14.83921736 1.52888904 -12 -0.625 C-7.68900795 -1.85671201 -4.10415372 -1.82406832 0 0 Z " fill="#FFFFFF" transform="translate(753.8125,213.25)"/>
<path d="M0 0 C2.84545762 1.76614611 3.01955037 3.07540858 3.875 6.375 C4.01384714 10.40156711 3.47120257 11.88811528 1 15 C-2.09173752 16.54586876 -4.59429552 16.29359521 -8 16 C-10.4375 14.5 -10.4375 14.5 -12 12 C-12.5526067 9.21987555 -12.58161929 6.77694702 -12 4 C-8.32093327 -0.78278674 -5.77095984 -1.41329629 0 0 Z " fill="#FFFFFF" transform="translate(357,348)"/>
<path d="M0 0 C2.55078958 2.22165544 2.93332671 3.60829443 3.5 6.9375 C2.81810427 11.11411135 1.36996335 12.50915752 -2 15 C-5 15.625 -5 15.625 -8 15 C-10.9375 12.9375 -10.9375 12.9375 -13 10 C-13.1506132 5.70752394 -12.66257079 3.77949504 -9.875 0.5 C-6.06467129 -1.48799759 -4.08035596 -1.20899436 0 0 Z " fill="#FFFFFF" transform="translate(234,348)"/>
<path d="M0 0 C3.21983624 2.17556503 3.91057891 3.69261502 5 7.4375 C5 11 5 11 3.5 13.9375 C1 16 1 16 -2.4375 16.6875 C-6 16 -6 16 -9 13.375 C-11 10 -11 10 -11.0625 6.875 C-8.95085545 1.16113827 -6.15732059 -1.0262201 0 0 Z " fill="#FFFFFF" transform="translate(232,221)"/>
<path d="M0 0 C2.3125 0.875 2.3125 0.875 5.3125 2.875 C6.66622367 7.45683396 6.2328885 10.5288576 4.3125 14.875 C1.17378812 16.44435594 -1.22605822 16.22701103 -4.6875 15.875 C-7.6875 13.8125 -7.6875 13.8125 -9.6875 10.875 C-9.875 7.3125 -9.875 7.3125 -8.6875 3.875 C-5.7365984 1.19236218 -4.04774217 -0.18826708 0 0 Z " fill="#FFFFFF" transform="translate(354.6875,222.125)"/>
</svg>
